<svg width="54" height="32" viewBox="0 0 54 32" fill="none" xmlns="http://www.w3.org/2000/svg">
<circle cx="16" cy="16" r="16" fill="#00CD8D"/>
<path d="M53.411 17.878L49.352 10.595C49.1871 10.2995 48.9463 10.0535 48.6544 9.88226C48.3626 9.71103 48.0303 9.62084 47.692 9.621H42.158V4.362C42.1575 4.00094 42.0138 3.65481 41.7585 3.3995C41.5032 3.14419 41.1571 3.00053 40.796 3H15.696C15.3348 3.00026 14.9884 3.14381 14.7329 3.39915C14.4773 3.65449 14.3335 4.00076 14.333 4.362V6.839H11.098C10.9995 6.839 10.902 6.8584 10.811 6.89609C10.72 6.93378 10.6373 6.98903 10.5677 7.05867C10.498 7.12831 10.4428 7.21099 10.4051 7.30199C10.3674 7.39298 10.348 7.49051 10.348 7.589C10.348 7.68749 10.3674 7.78502 10.4051 7.87601C10.4428 7.96701 10.498 8.04969 10.5677 8.11933C10.6373 8.18897 10.72 8.24422 10.811 8.28191C10.902 8.3196 10.9995 8.339 11.098 8.339H20.254C20.4529 8.339 20.6437 8.25998 20.7843 8.11933C20.925 7.97868 21.004 7.78791 21.004 7.589C21.004 7.39009 20.925 7.19932 20.7843 7.05867C20.6437 6.91802 20.4529 6.839 20.254 6.839H15.833V4.5H40.658V24.121H29.666C29.4938 23.1767 28.9958 22.3228 28.2588 21.708C27.5217 21.0932 26.5923 20.7564 25.6325 20.7564C24.6727 20.7564 23.7433 21.0932 23.0062 21.708C22.2692 22.3228 21.7712 23.1767 21.599 24.121H15.833V19.853H18.048C18.2469 19.853 18.4377 19.774 18.5783 19.6333C18.719 19.4927 18.798 19.3019 18.798 19.103C18.798 18.9041 18.719 18.7133 18.5783 18.5727C18.4377 18.432 18.2469 18.353 18.048 18.353H8.52899C8.33008 18.353 8.13931 18.432 7.99866 18.5727C7.85801 18.7133 7.77899 18.9041 7.77899 19.103C7.77899 19.3019 7.85801 19.4927 7.99866 19.6333C8.13931 19.774 8.33008 19.853 8.52899 19.853H14.329V24.871C14.329 25.0699 14.408 25.2607 14.5487 25.4013C14.6893 25.542 14.8801 25.621 15.079 25.621H21.595C21.7672 26.5653 22.2652 27.4192 23.0022 28.034C23.7393 28.6488 24.6687 28.9856 25.6285 28.9856C26.5883 28.9856 27.5177 28.6488 28.2548 28.034C28.9918 27.4192 29.4898 26.5653 29.662 25.621H43.262C43.4342 26.5653 43.9322 27.4192 44.6692 28.034C45.4063 28.6488 46.3357 28.9856 47.2955 28.9856C48.2553 28.9856 49.1847 28.6488 49.9218 28.034C50.6588 27.4192 51.1568 26.5653 51.329 25.621H52.705C53.0463 25.6207 53.3736 25.4851 53.6151 25.2438C53.8566 25.0025 53.9925 24.6753 53.993 24.334V20.144C53.9948 19.3515 53.7944 18.5716 53.411 17.878ZM25.633 27.478C25.1162 27.4788 24.6108 27.3263 24.1808 27.0397C23.7507 26.7532 23.4153 26.3456 23.217 25.8683C23.0187 25.3911 22.9664 24.8658 23.0667 24.3589C23.167 23.8519 23.4155 23.3862 23.7806 23.0205C24.1458 22.6548 24.6112 22.4056 25.1179 22.3045C25.6247 22.2034 26.1501 22.2549 26.6276 22.4524C27.1052 22.65 27.5133 22.9848 27.8005 23.4144C28.0877 23.8441 28.241 24.3492 28.241 24.866C28.2418 25.5588 27.9676 26.2235 27.4786 26.7142C26.9895 27.2049 26.3257 27.4814 25.633 27.483V27.478ZM47.302 27.478C46.7853 27.4786 46.28 27.3259 45.85 27.0393C45.4201 26.7526 45.0848 26.3449 44.8867 25.8676C44.6885 25.3904 44.6364 24.8651 44.7368 24.3583C44.8373 23.8514 45.0858 23.3857 45.451 23.0201C45.8161 22.6545 46.2816 22.4054 46.7883 22.3044C47.2951 22.2034 47.8204 22.2549 48.2979 22.4525C48.7753 22.6501 49.1834 22.9849 49.4706 23.4145C49.7577 23.8441 49.911 24.3493 49.911 24.866C49.9115 25.2091 49.8444 25.549 49.7136 25.8663C49.5828 26.1835 49.3908 26.4718 49.1485 26.7148C48.9062 26.9579 48.6185 27.1508 48.3016 27.2826C47.9848 27.4144 47.6451 27.4825 47.302 27.483V27.478ZM52.502 24.116H51.336C51.1638 23.1717 50.6658 22.3178 49.9288 21.703C49.1917 21.0882 48.2623 20.7514 47.3025 20.7514C46.3427 20.7514 45.4133 21.0882 44.6762 21.703C43.9392 22.3178 43.4412 23.1717 43.269 24.116H42.158V11.116H47.691C47.7621 11.116 47.832 11.1351 47.8933 11.1711C47.9547 11.2071 48.0053 11.2589 48.04 11.321L52.1 18.6C52.3618 19.0696 52.4995 19.5983 52.5 20.136L52.502 24.116Z" fill="#051732"/>
<path d="M15.083 9.90601C14.8841 9.90601 14.6933 9.98502 14.5527 10.1257C14.412 10.2663 14.333 10.4571 14.333 10.656V14.942H12.35C12.1511 14.942 11.9603 15.021 11.8197 15.1617C11.679 15.3023 11.6 15.4931 11.6 15.692C11.6 15.8909 11.679 16.0817 11.8197 16.2223C11.9603 16.363 12.1511 16.442 12.35 16.442H25.633C25.8319 16.442 26.0227 16.363 26.1633 16.2223C26.304 16.0817 26.383 15.8909 26.383 15.692C26.383 15.4931 26.304 15.3023 26.1633 15.1617C26.0227 15.021 25.8319 14.942 25.633 14.942H15.833V10.656C15.833 10.4571 15.754 10.2663 15.6133 10.1257C15.4727 9.98502 15.2819 9.90601 15.083 9.90601ZM12.691 11.732C12.691 11.5331 12.612 11.3423 12.4713 11.2017C12.3307 11.061 12.1399 10.982 11.941 10.982H6.75C6.55109 10.982 6.36032 11.061 6.21967 11.2017C6.07902 11.3423 6 11.5331 6 11.732C6 11.9309 6.07902 12.1217 6.21967 12.2623C6.36032 12.403 6.55109 12.482 6.75 12.482H11.937C12.0358 12.4825 12.1338 12.4635 12.2252 12.4261C12.3167 12.3886 12.3998 12.3335 12.4699 12.2638C12.54 12.1941 12.5956 12.1112 12.6335 12.0199C12.6715 11.9287 12.691 11.8308 12.691 11.732Z" fill="#051732"/>
</svg>
