<svg width="46" height="32" viewBox="0 0 46 32" fill="none" xmlns="http://www.w3.org/2000/svg">
<circle cx="16" cy="16" r="16" fill="#00CD8D"/>
<path d="M45.976 5.94572L45.9726 5.93705C45.9655 5.90454 45.9545 5.87299 45.94 5.84305C45.8841 5.75179 45.7997 5.68148 45.6999 5.64305C45.6873 5.63572 45.6744 5.62905 45.6612 5.62305L45.6465 5.61771C45.6407 5.61601 45.6349 5.61401 45.6292 5.61171L29.2444 0.0263287C29.1813 0.00508344 29.1145 -0.00343949 29.048 0.00125195C28.9815 0.00594339 28.9166 0.0237563 28.857 0.0536623L14.2748 7.42573C14.2292 7.44885 14.1876 7.479 14.1514 7.51506C14.1441 7.52173 14.1394 7.53106 14.1327 7.5384C14.0993 7.57537 14.0716 7.61717 14.0507 7.6624C14.0467 7.67107 14.0394 7.6764 14.036 7.6844C14.0327 7.6924 14.036 7.70107 14.0314 7.70907C14.0148 7.75697 14.0056 7.80709 14.004 7.85773C14.004 7.86707 14.004 7.8764 14.004 7.88574V7.89307C14.0074 7.94826 14.0198 8.00253 14.0407 8.05374C14.0467 8.06707 14.054 8.07907 14.0607 8.0924C14.08 8.13125 14.1045 8.16735 14.1334 8.19974C14.1447 8.2124 14.1547 8.2244 14.1674 8.2364C14.21 8.27697 14.2594 8.3097 14.3134 8.33307L19.7877 10.5398V15.7591C19.788 15.8607 19.8193 15.9597 19.8773 16.0431C19.9353 16.1265 20.0173 16.1902 20.1125 16.2258L23.8302 17.6192C23.9057 17.6474 23.987 17.657 24.067 17.6471C24.1471 17.6372 24.2236 17.6081 24.2899 17.5623C24.3563 17.5164 24.4106 17.4552 24.4481 17.3839C24.4857 17.3125 24.5055 17.2331 24.5057 17.1525L24.5264 12.4398L30.9283 15.0191C30.9817 15.039 31.038 15.0496 31.095 15.0505C31.1023 15.0505 31.1083 15.0558 31.1157 15.0558C31.1943 15.0533 31.2713 15.0323 31.3404 14.9945C31.3484 14.9898 31.3571 14.9945 31.3651 14.9871L44.999 6.97573V22.7425L31.6171 30.6226V16.3185C31.6171 16.1859 31.5644 16.0587 31.4706 15.9649C31.3768 15.8712 31.2496 15.8185 31.117 15.8185C30.9843 15.8185 30.8571 15.8712 30.7633 15.9649C30.6695 16.0587 30.6168 16.1859 30.6168 16.3185V30.7613L15.0003 24.4666V9.89109C15.0003 9.75848 14.9476 9.6313 14.8538 9.53753C14.76 9.44376 14.6328 9.39108 14.5002 9.39108C14.3675 9.39108 14.2403 9.44376 14.1465 9.53753C14.0527 9.6313 14 9.75848 14 9.89109V24.8046C13.9994 24.9048 14.0289 25.0029 14.0848 25.0862C14.1407 25.1694 14.2204 25.2339 14.3134 25.2712L30.9269 31.9633C30.996 31.992 31.0707 32.0041 31.1453 31.9988C31.2198 31.9935 31.2921 31.9708 31.3564 31.9326C31.3611 31.9326 31.3664 31.9326 31.3711 31.9286L45.7532 23.4619C45.8283 23.4178 45.8905 23.3548 45.9336 23.2793C45.9768 23.2037 45.9994 23.1182 45.9993 23.0312V6.12038C46.0025 6.06122 45.9946 6.00197 45.976 5.94572ZM31.0716 14.0031L25.2206 11.6458L38.5618 4.25903L44.3122 6.21972L31.0716 14.0031ZM29.1204 1.041L33.8111 2.64102L20.2618 9.65442L15.7098 7.81973L29.1204 1.041ZM23.5088 16.4338L20.788 15.4145V10.5084L35.1221 3.08769L37.2821 3.82436L23.9122 11.2244C23.8482 11.2434 23.7885 11.2749 23.7367 11.3171C23.685 11.3593 23.6422 11.4115 23.6108 11.4704C23.5596 11.5469 23.5314 11.6364 23.5294 11.7284L23.5088 16.4338Z" fill="#051732"/>
</svg>
