<svg width="48" height="39" viewBox="0 0 48 39" fill="none" xmlns="http://www.w3.org/2000/svg">
<circle cx="16" cy="23" r="16" fill="#00CD8D"/>
<path fill-rule="evenodd" clip-rule="evenodd" d="M36.3665 15.0929C36.0831 15.0929 35.8534 14.8605 35.8534 14.5739C35.8534 14.2872 36.0831 14.0548 36.3665 14.0548H36.5214C36.8048 14.0548 37.0345 14.2872 37.0345 14.5739C37.0345 14.8605 36.8048 15.0929 36.5214 15.0929H36.3665ZM39.2018 15.0929C38.9185 15.0929 38.6888 14.8605 38.6888 14.5739C38.6888 14.2872 38.9185 14.0548 39.2018 14.0548H39.3567C39.6401 14.0548 39.8698 14.2872 39.8698 14.5739C39.8698 14.8605 39.6401 15.0929 39.3567 15.0929H39.2018ZM42.0371 15.0929C41.7538 15.0929 41.5241 14.8605 41.5241 14.5739C41.5241 14.2872 41.7538 14.0548 42.0371 14.0548H42.1921C42.4754 14.0548 42.7051 14.2872 42.7051 14.5739C42.7051 14.8605 42.4754 15.0929 42.1921 15.0929H42.0371ZM44.8725 15.0929C44.5891 15.0929 44.3594 14.8605 44.3594 14.5739C44.3594 14.2872 44.5891 14.0548 44.8725 14.0548H45.0274C45.3108 14.0548 45.5405 14.2872 45.5405 14.5739C45.5405 14.8605 45.3108 15.0929 45.0274 15.0929H44.8725ZM30.4677 4.9079C30.4677 5.19455 30.238 5.42692 29.9547 5.42692C29.6713 5.42692 29.4416 5.19455 29.4416 4.9079C29.4416 4.17689 29.7346 3.51503 30.2081 3.0359C30.6818 2.55685 31.336 2.26045 32.0586 2.26045C32.7812 2.26045 33.4355 2.55685 33.909 3.0359C34.3826 3.51503 34.6755 4.17689 34.6755 4.9079C34.6755 5.52011 34.4951 6.07928 34.1544 6.53029C33.8243 6.96725 33.3481 7.29445 32.7447 7.46109C32.7055 7.4719 32.6759 7.50789 32.6536 7.5633C32.5979 7.70135 32.5792 7.90472 32.5855 8.1544C32.592 8.43991 32.3687 8.67683 32.0865 8.68358C31.8042 8.69024 31.57 8.46428 31.5634 8.17877C31.5537 7.79023 31.5926 7.44955 31.7037 7.17412C31.8481 6.81621 32.0945 6.56905 32.4762 6.46367C32.8521 6.35991 33.1439 6.16256 33.3407 5.90191C33.5426 5.63476 33.6494 5.29229 33.6494 4.90798C33.6494 4.46346 33.4713 4.06111 33.1835 3.76991C32.8956 3.47871 32.4978 3.29858 32.0585 3.29858C31.6192 3.29858 31.2214 3.47871 30.9335 3.76991C30.6457 4.06111 30.4676 4.46354 30.4676 4.90798L30.4677 4.9079ZM31.5455 10.0533C31.5455 9.76664 31.7752 9.53426 32.0586 9.53426C32.3419 9.53426 32.5716 9.76664 32.5716 10.0533V10.0864C32.5716 10.3731 32.3419 10.6055 32.0586 10.6055C31.7752 10.6055 31.5455 10.3731 31.5455 10.0864V10.0533ZM46.8636 35.9256H22.1803V37.9619H46.8636V35.9256ZM22.8941 16.642C22.4051 16.1473 21.7295 15.8413 20.9832 15.8413C20.2369 15.8413 19.5612 16.1473 19.0723 16.642C18.5832 17.1366 18.2808 17.8202 18.2808 18.5752C18.2808 19.3301 18.5832 20.0137 19.0723 20.5084C19.5612 21.0031 20.2369 21.3091 20.9832 21.3091C21.7295 21.3091 22.4051 21.0031 22.8941 20.5084C23.3831 20.0136 23.6856 19.3301 23.6856 18.5752C23.6856 17.8202 23.3831 17.1366 22.8941 16.642ZM20.9832 14.8032C22.0127 14.8032 22.9449 15.2255 23.6196 15.9081C24.2943 16.5906 24.7117 17.5336 24.7117 18.5752C24.7117 19.6167 24.2944 20.5597 23.6196 21.2423C22.9449 21.9249 22.0127 22.3471 20.9832 22.3471C19.9536 22.3471 19.0215 21.9249 18.3468 21.2423C17.6721 20.5597 17.2547 19.6167 17.2547 18.5752C17.2547 17.5336 17.6721 16.5906 18.3468 15.9081C19.0215 15.2255 19.9536 14.8032 20.9832 14.8032ZM38.9047 1.03805H25.2124C25.0869 1.03805 24.9723 1.09037 24.889 1.17471C24.8057 1.25905 24.7539 1.37491 24.7539 1.5019V11.5532C24.7539 11.6802 24.8057 11.7962 24.889 11.8804C24.9724 11.9647 25.0869 12.0171 25.2124 12.0171H27.5167C27.8001 12.0171 28.0298 12.2495 28.0298 12.5361V14.4197L30.0553 13.2367C30.0638 13.231 30.0726 13.2254 30.0816 13.2202L31.9891 12.106C32.071 12.0498 32.1699 12.017 32.2763 12.017H38.9047C39.0303 12.017 39.1449 11.9647 39.2282 11.8804C39.3115 11.7961 39.3632 11.6802 39.3632 11.5532V1.5019C39.3632 1.37491 39.3115 1.25897 39.2282 1.17471C39.1448 1.09045 39.0303 1.03805 38.9047 1.03805ZM34.42 13.0552V18.1418C34.42 18.2333 34.4573 18.3168 34.5176 18.3777C34.5778 18.4387 34.6604 18.4765 34.7508 18.4765H36.7522C37.0356 18.4765 37.2653 18.7088 37.2653 18.9955V20.5124L38.9461 19.5307L38.9466 19.5316L40.5889 18.5723C40.6728 18.512 40.7753 18.4765 40.8861 18.4765H46.6431C46.7335 18.4765 46.8161 18.4387 46.8763 18.3777C46.9366 18.3168 46.9739 18.2333 46.9739 18.1418V9.41182C46.9739 9.32033 46.9366 9.23672 46.8763 9.17587C46.8161 9.11501 46.7335 9.07715 46.6431 9.07715H40.3893V11.5533C40.3893 11.9669 40.2225 12.3425 39.9536 12.6144C39.6848 12.8864 39.3135 13.0552 38.9047 13.0552H34.42ZM40.3893 8.0391V1.5019C40.3893 1.08834 40.2225 0.712723 39.9536 0.44078C39.6848 0.168837 39.3135 0 38.9047 0H25.2124C24.8036 0 24.4324 0.168837 24.1635 0.44078C23.8947 0.712723 23.7278 1.08834 23.7278 1.5019V11.5532C23.7278 11.9668 23.8947 12.3424 24.1635 12.6144C24.4324 12.8863 24.8036 13.0551 25.2124 13.0551H27.0037V15.3161H27.0059C27.0058 15.4036 27.0277 15.4922 27.0739 15.5736C27.2144 15.821 27.5267 15.9064 27.7713 15.7641L30.5661 14.1317C30.5757 14.1269 30.5851 14.1218 30.5945 14.1163L32.4112 13.0551H33.3939V18.1417C33.3939 18.5198 33.5464 18.863 33.7921 19.1116C34.0378 19.3601 34.3771 19.5144 34.7508 19.5144H36.2392V21.4099H36.2404C36.2403 21.4981 36.2625 21.5876 36.3094 21.6694C36.4511 21.9168 36.7642 22.0012 37.0088 21.858L39.4591 20.4268L39.4587 20.4259L41.0191 19.5145H46.6431C47.0168 19.5145 47.3561 19.3602 47.6018 19.1117C47.8475 18.8631 48 18.5198 48 18.1418V9.41182C48 9.03376 47.8475 8.69048 47.6018 8.44194C47.3561 8.1934 47.0168 8.0391 46.6431 8.0391H40.3893ZM28.7375 30.4464L37.0015 25.6196C37.2461 25.4763 37.5592 25.5607 37.7009 25.8082C37.8426 26.0556 37.7591 26.3724 37.5145 26.5157L29.1827 31.3821C29.2796 31.8043 29.2625 32.2572 29.109 32.6915C29.1062 32.7009 29.103 32.7105 29.0996 32.7199C28.8784 33.323 28.4321 33.7804 27.8913 34.0313C27.3518 34.2817 26.7191 34.3254 26.1233 34.1021L24.2555 33.401V34.8876H47.3765C47.6599 34.8876 47.8896 35.12 47.8896 35.4066V38.481C47.8896 38.7676 47.6599 39 47.3765 39H16.513C16.2297 39 16 38.7676 16 38.481V27.7027C16 26.5538 16.4643 25.5097 17.2122 24.753C17.9601 23.9964 18.9922 23.5267 20.1279 23.5267C21.2636 23.5267 22.2734 23.9915 23.0146 24.7414C23.76 25.4954 24.2273 26.5409 24.2537 27.6925L24.2702 28.4096L27.709 29.6993C27.7174 29.7019 27.7259 29.7049 27.7343 29.708C28.1429 29.8614 28.4837 30.1217 28.7376 30.4465L28.7375 30.4464ZM28.1095 31.3804C28.236 31.6727 28.2581 32.0124 28.1468 32.3356C28.1421 32.3465 28.1379 32.3577 28.134 32.369C28.0091 32.7015 27.7631 32.9529 27.4667 33.0905C27.1695 33.2284 26.8205 33.2532 26.4898 33.1324C26.4818 33.1291 26.4736 33.1261 26.4653 33.1233L23.9337 32.173C23.9253 32.1696 23.9168 32.1664 23.9083 32.1635L21.4355 31.2353L20.561 30.3505C20.3607 30.1479 20.0358 30.1479 19.8355 30.3505C19.6352 30.5532 19.6352 30.8818 19.8355 31.0845L20.7824 32.0424C20.8055 32.0667 20.8311 32.089 20.8591 32.1086L20.8695 32.1157H20.8697L20.8803 32.1227C20.9131 32.1434 20.9476 32.16 20.9832 32.1726L23.2296 33.0158V34.8876H21.6672C21.3839 34.8876 21.1542 35.12 21.1542 35.4066V37.962H17.026V27.7027C17.026 26.8403 17.3751 26.0559 17.9376 25.4869C18.5 24.9179 19.2754 24.5647 20.1278 24.5647C20.9735 24.5647 21.7335 24.9132 22.2891 25.4753C22.8561 26.0489 23.2116 26.8418 23.2316 27.7128L23.2554 28.7492C23.2451 28.9694 23.3755 29.1803 23.5909 29.2602L27.3526 30.6709C27.3608 30.6745 27.3691 30.6779 27.3776 30.6811C27.7038 30.8035 27.952 31.046 28.0912 31.3402C28.0967 31.3537 28.1027 31.3671 28.1095 31.3804Z" fill="#051732"/>
</svg>
