<svg width="43" height="32" viewBox="0 0 43 32" fill="none" xmlns="http://www.w3.org/2000/svg">
<circle cx="16" cy="16" r="16" fill="#00CD8D"/>
<path d="M27.33 32C26.2531 32 25.4281 31.299 24.9009 30.7718C23.6547 29.5256 15.0729 19.1948 14.4115 18.3976C12.8557 16.8253 12 14.7496 12 12.5481C12 10.3309 12.8679 8.24159 14.4442 6.66583L14.6658 6.44421C15.4388 5.66687 16.3583 5.05059 17.3711 4.63104C18.3839 4.21149 19.4699 3.99702 20.5661 4.00003C22.7945 4.00003 24.8902 4.86797 26.4664 6.44421C26.5025 6.48034 26.5362 6.51939 26.566 6.56088C26.567 6.56088 26.8486 6.91089 27.2987 6.91089C27.7703 6.91089 27.9816 6.63215 28.0041 6.60042C28.0441 6.53452 28.0759 6.49889 28.131 6.44421C28.904 5.66687 29.8235 5.05059 30.8363 4.63104C31.8491 4.21149 32.9351 3.99702 34.0313 4.00003C35.1276 3.99702 36.2135 4.21149 37.2263 4.63104C38.2391 5.05059 39.1586 5.66687 39.9316 6.44421L40.1532 6.66583C41.7295 8.24159 42.5974 10.3309 42.5974 12.5481C42.5974 14.7492 41.7422 16.8238 40.1879 18.3957C39.5274 19.1992 31.1942 29.3381 29.76 30.7723C29.2328 31.2995 28.4073 32 27.33 32ZM20.5661 5.95215C19.7264 5.94984 18.8945 6.1141 18.1187 6.43544C17.3429 6.75678 16.6385 7.22882 16.0463 7.82422L15.8247 8.04584C14.6175 9.25305 13.9526 10.8517 13.9526 12.5476C13.9526 14.2434 14.6175 15.8421 15.8247 17.0493C15.8462 17.0703 15.8662 17.0928 15.8857 17.1162C19.0597 20.9399 25.3168 28.4262 26.2819 29.3913C26.7173 29.8267 27.0698 30.0474 27.33 30.0474C27.6546 30.0474 28.0798 29.691 28.379 29.3913C29.4949 28.2749 35.6237 20.8765 38.7078 17.1201C38.7283 17.0952 38.7498 17.0718 38.7723 17.0493C39.9795 15.8421 40.6443 14.2429 40.6443 12.5476C40.6443 10.8517 39.9795 9.25305 38.7723 8.04584L38.5506 7.82422C37.9585 7.22882 37.2541 6.75678 36.4783 6.43544C35.7024 6.1141 34.8706 5.94984 34.0308 5.95215C32.3506 5.95215 30.7685 6.59652 29.5681 7.76808C29.3285 8.0888 28.6138 8.86301 27.2982 8.86301C26.0368 8.86301 25.2704 8.05854 25.0469 7.78566C23.8541 6.60661 22.2432 5.94746 20.5661 5.95215Z" fill="#051732"/>
<path d="M16.2509 11.9826C16.1757 11.9828 16.1015 11.9655 16.034 11.9323C15.9666 11.899 15.9078 11.8505 15.8621 11.7907C15.8165 11.731 15.7854 11.6614 15.7711 11.5876C15.7568 11.5137 15.7598 11.4376 15.7798 11.3651C16.0133 10.5216 16.4618 9.75309 17.0812 9.13475L17.2184 8.99758C17.8253 8.38716 18.5786 7.94263 19.4063 7.70649C20.2341 7.47035 21.1086 7.45049 21.9462 7.64881C22.0089 7.66308 22.0681 7.6896 22.1205 7.72684C22.1729 7.76407 22.2175 7.8113 22.2516 7.8658C22.2857 7.9203 22.3087 7.98101 22.3193 8.04442C22.3299 8.10784 22.3278 8.17273 22.3133 8.23536C22.2987 8.29798 22.2719 8.35711 22.2344 8.40935C22.197 8.4616 22.1495 8.50592 22.0949 8.53978C22.0402 8.57363 21.9794 8.59636 21.9159 8.60665C21.8525 8.61694 21.7876 8.61459 21.725 8.59973C21.049 8.43922 20.3432 8.45498 19.675 8.6455C19.0068 8.83603 18.3988 9.19493 17.9091 9.68783L17.772 9.825C17.2721 10.3238 16.9101 10.9438 16.7215 11.6243C16.6928 11.7272 16.6313 11.8179 16.5464 11.8826C16.4614 11.9473 16.3577 11.9824 16.2509 11.9826Z" fill="#051732"/>
<path d="M24.0242 9.83035C23.9601 9.83042 23.8966 9.81782 23.8374 9.79327C23.7782 9.76872 23.7244 9.73272 23.6791 9.68732C23.5152 9.52355 23.3379 9.37381 23.149 9.23969C23.0966 9.20264 23.0521 9.15563 23.018 9.10137C22.9839 9.0471 22.9608 8.98664 22.95 8.92343C22.9393 8.86023 22.9411 8.79553 22.9554 8.73303C22.9697 8.67053 22.9961 8.61146 23.0333 8.5592C23.0703 8.50684 23.1173 8.46229 23.1715 8.42811C23.2258 8.39392 23.2862 8.37077 23.3494 8.35998C23.4126 8.34919 23.4773 8.35097 23.5399 8.36522C23.6024 8.37947 23.6615 8.40591 23.7138 8.44302C23.9471 8.60802 24.1677 8.79449 24.3698 8.99658C24.4385 9.06476 24.4854 9.15184 24.5044 9.24673C24.5235 9.34162 24.5138 9.44002 24.4768 9.52943C24.4397 9.61883 24.3769 9.69519 24.2963 9.74877C24.2157 9.80236 24.121 9.83076 24.0242 9.83035Z" fill="#051732"/>
</svg>
